<?xml version="1.0" encoding="UTF-8" standalone="no"?>
<!-- Created with Inkscape (http://www.inkscape.org/) -->

<svg
   version="1.1"
   id="svg1"
   width="343"
   height="361"
   viewBox="0 0 343 361"
   sodipodi:docname="hero.svg"
   inkscape:version="1.4.3 (0d15f75, 2025-12-25)"
   xmlns:inkscape="http://www.inkscape.org/namespaces/inkscape"
   xmlns:sodipodi="http://sodipodi.sourceforge.net/DTD/sodipodi-0.dtd"
   xmlns="http://www.w3.org/2000/svg"
   xmlns:svg="http://www.w3.org/2000/svg">
  <defs
     id="defs1" />
  <sodipodi:namedview
     id="namedview1"
     pagecolor="#ffffff"
     bordercolor="#111111"
     borderopacity="1"
     inkscape:showpageshadow="0"
     inkscape:pageopacity="0"
     inkscape:pagecheckerboard="1"
     inkscape:deskcolor="#d1d1d1"
     showgrid="false"
     inkscape:zoom="1.9154519"
     inkscape:cx="175.15449"
     inkscape:cy="180.37519"
     inkscape:window-width="1920"
     inkscape:window-height="1013"
     inkscape:window-x="1071"
     inkscape:window-y="455"
     inkscape:window-maximized="1"
     inkscape:current-layer="g1" />
  <g
     inkscape:groupmode="layer"
     inkscape:label="Image"
     id="g1">
    <path
       style="fill:#000000"
       d="M 155.68577,354.49781 C 131.38933,343.67512 109.22247,328.54088 85.825447,315.8978 63.56595,302.46584 40.368483,290.49512 18.628546,276.27315 8.4077114,265.03852 9.4987998,243.68157 17.03207,231.42018 38.834794,214.36912 64.499795,203.00455 87.804336,188.14399 96.755888,183.50993 107.99658,177.65 92.616935,173.11282 68.666842,158.50539 43.42481,145.92127 20.357855,129.9357 9.3653184,119.05222 9.4575057,95.424055 19.584687,84.152967 49.59085,62.928315 82.866314,46.774477 114.16821,27.548113 c 21.96817,-11.826032 46.15362,-30.7970811 72.5744,-21.591687 31.234,12.300036 58.64946,32.353673 88.1267,48.18057 17.58844,11.366069 38.3064,19.163446 52.72915,34.695687 3.74418,15.159937 7.4962,38.097807 -10.94889,45.622117 -24.95924,15.23686 -50.7086,29.16305 -75.78234,44.19765 10.22092,10.23607 25.7606,16.13807 38.28253,24.33731 15.54733,9.86068 33.28922,16.9298 46.67155,29.77082 4.56256,14.88609 8.39022,39.64777 -9.20816,47.68475 -42.17168,24.10812 -83.77676,49.37555 -126.59006,72.26008 -10.94858,3.60772 -23.08941,4.51699 -34.33732,1.7924 z m 31.4553,-26.86564 c 40.52958,-21.40692 79.62451,-45.48611 119.54534,-68.01263 17.1591,-5.47756 23.16036,-26.43204 4.72451,-34.86383 -23.41876,-16.81946 -49.45719,-29.49749 -74.61642,-43.43897 -22.39817,9.594 -42.14104,28.92269 -67.67934,28.80167 -22.33186,-2.41782 -39.71962,-18.56283 -59.62398,-27.16091 -16.554741,0.73408 -29.472752,13.88664 -43.997075,20.81858 -16.612773,10.51568 -35.595633,18.29114 -49.478059,32.51002 -4.541929,17.33593 21.545989,22.16967 32.55917,31.17789 36.141796,20.41707 71.343224,42.695 108.625254,60.97802 9.7725,2.17341 20.36155,2.30083 29.9406,-0.80984 z m 0.0582,-121.96367 c 45.71798,-24.61872 90.82407,-50.51546 135.13997,-77.57694 8.70364,-6.43542 9.26276,-35.723162 -5.01503,-18.34011 -40.42406,23.53597 -80.46282,47.86724 -121.82878,69.69783 -15.59656,8.31897 -35.21241,9.72784 -50.34327,-0.48293 C 102.53878,154.76276 60.000586,130.3641 18.25,104.70366 c -7.726378,-1.83196 -3.333176,26.31806 8.158079,26.8727 42.141724,24.79406 84.316901,49.56711 127.091921,73.25131 10.70533,3.59205 22.81046,3.66051 33.69927,0.84083 z M 190,180.84633 C 234.36375,156.18477 278.37924,130.83719 321.84501,104.62776 338.02458,85.882844 306.51523,76.372956 294.42114,68.064484 259.69131,48.606364 225.97319,27.239686 190.56682,9.0566503 168.57781,-2.2300591 145.81218,12.410055 126.79899,22.875282 91.261873,43.886921 54.62274,63.189195 20.053934,85.739617 6.9667147,101.05925 31.055101,110.91731 41.843422,117.26796 77.18983,137.46737 112.14638,158.3934 147.85506,177.9321 c 12.94505,6.16859 28.64953,9.276 42.14494,2.91423 z"
       id="path1" />
  </g>
</svg>
